Coordinates
version=1
nRows=12
nColumns=34
inDegrees=yes

Units are S.I. units (second, meters, Newtons, ...)
If the header above contains a line with 'inDegrees', this indicates whether rotational values are in degrees (yes) or radians (no).

endheader
time	pelvis_tilt	pelvis_list	pelvis_rotation	pelvis_tx	pelvis_ty	pelvis_tz	hip_flexion_r	hip_adduction_r	hip_rotation_r	knee_angle_r	ankle_angle_r	subtalar_angle_r	mtp_angle_r	hip_flexion_l	hip_adduction_l	hip_rotation_l	knee_angle_l	ankle_angle_l	subtalar_angle_l	mtp_angle_l	lumbar_extension	lumbar_bending	lumbar_rotation	arm_flex_r	arm_add_r	arm_rot_r	elbow_flex_r	pro_sup_r	arm_flex_l	arm_add_l	arm_rot_l	elbow_flex_l	pro_sup_l
      1.53333330	     -6.30374229	      0.05281044	      5.24250081	      1.71934191	      0.85362162	     -0.06302037	     12.20027371	    -10.88224667	    -14.07239908	     34.19862855	     14.10315575	     -3.31693086	      0.00000000	     17.34658640	    -10.54197367	     -9.07352992	     36.79337839	     12.95489984	     10.25948481	      0.00000000	      0.30869629	     -0.17274943	      5.09231721	     63.07901708	     -8.56213424	      7.85986281	    115.04157114	     98.93640612	     84.13179406	     -0.72731449	     25.45760339	    101.69674411	     90.66681637
      1.55000000	     -6.28815488	      0.26405234	      6.15639086	      1.72239882	      0.86546039	     -0.06372554	     10.14551359	    -10.55170895	    -15.07072886	     30.42592358	     10.83607289	     -3.56029107	      0.00000000	     15.87758320	     -9.97728863	     -9.50229724	     33.10480095	      9.25307635	     11.15079502	      0.00000000	      0.93850771	     -0.69140627	      5.29988470	     71.58610656	     -9.24256515	      7.63432774	    107.73039357	     98.30711463	     89.23324001	     -1.87883920	     24.63772114	    100.11248903	     91.09121112
      1.56666670	     -6.48997307	      0.46358198	      6.84542834	      1.72558538	      0.87663013	     -0.06408082	      8.58878573	    -10.23129984	    -15.70532757	     26.88671596	      7.34643163	     -3.88632889	      0.00000000	     14.77699920	     -9.33819322	     -9.77677447	     29.68271108	      5.38981485	     11.61785708	      0.00000000	      1.38880376	     -1.26355359	      5.74028121	     81.44403250	     -9.54095640	      7.76097892	     97.19714245	     97.80441267	     95.00674137	     -2.57475280	     23.42395896	     97.35608068	     91.23982084
      1.58333330	     -6.84826460	      0.63103458	      7.30257758	      1.72990000	      0.88786866	     -0.06399146	      7.28866827	     -9.94178962	    -16.26503442	     23.39287901	      3.79209211	     -3.88285030	      0.00000000	     13.75509688	     -8.66449980	     -9.88314860	     26.24387058	      1.46788866	     11.88839074	      0.00000000	      1.65211218	     -1.87965513	      6.50461577	     92.18514912	     -9.45999027	      8.58861644	     83.09425311	     97.58077637	    101.39991598	     -2.62204511	     22.28383032	     93.66423283	     91.10981662
      1.60000000	     -7.26966973	      0.67097263	      7.66230878	      1.73499174	      0.89872230	     -0.06378794	      6.06489752	     -9.55898196	    -16.91148606	     19.92523895	      0.26249879	     -3.38239063	      0.00000000	     12.66042880	     -8.09112064	     -9.83263139	     22.64428333	     -2.40557744	     12.05400246	      0.00000000	      1.81558319	     -2.56881785	      7.51760681	    103.39721892	     -9.25958495	     10.37457456	     65.85710661	     97.62803388	    108.11769502	     -1.73326413	     21.42757087	     88.98903350	     90.70140091
      1.61666670	     -7.76728548	      0.65231287	      8.12621609	      1.73991832	      0.90647031	     -0.06377074	      4.92605856	     -9.18635421	    -17.69710610	     16.68129803	     -3.02603255	     -2.53829975	      0.00000000	     11.71216600	     -7.56506273	     -9.64679985	     19.21548293	     -6.04947888	     12.17492398	      0.00000000	      1.92635724	     -3.32039651	      8.84130253	    115.09724132	     -8.95117367	     13.76476654	     46.61738349	     97.71851134	    114.33530388	      0.04059041	     20.71290068	     84.65434484	     89.96030271
      1.63333330	     -8.34043950	      0.56206484	      8.65367236	      1.74378527	      0.91175392	     -0.06325243	      4.05143000	     -8.79141971	    -18.55586346	     13.86086674	     -6.09282770	     -1.57785012	      0.00000000	     11.03737356	     -7.15232689	     -9.43519034	     16.19073747	     -9.38695952	     12.15795122	      0.00000000	      2.11779316	     -4.18430329	     10.40007332	    126.25014053	     -8.52459218	     18.89073785	     28.53569428	     97.37008528	    119.64881583	      2.09296595	     20.01402660	     81.03780001	     88.88824487
      1.65000000	     -9.05440485	      0.61258427	      9.19503693	      1.74662439	      0.91491609	     -0.06216408	      3.65030009	     -8.69872869	    -19.59619732	     11.69856665	     -8.99179546	     -0.79691134	      0.00000000	     10.70461768	     -6.57950163	     -9.20611844	     13.58891760	    -12.25206859	     11.97513190	      0.00000000	      2.52311517	     -5.18340035	     12.60421240	    136.33677078	     -8.40934655	     27.71230637	     14.15497113	     95.10293299	    123.47737806	      3.69305590	     19.64566126	     78.66144726	     87.26394106
      1.66666670	     -9.78042277	      0.39349903	      9.74282656	      1.74889567	      0.91683709	     -0.06053393	      3.38845248	     -8.21263184	    -20.18911175	      9.58485879	    -11.63498344	     -0.19586657	      0.00000000	     10.79853921	     -6.42322658	     -9.23810873	     11.62543069	    -15.16534957	     11.60814256	      0.00000000	      3.22401317	     -6.31624088	     13.38543838	    143.15828955	     -8.04081494	     33.40682220	      5.74503279	     91.14322928	    127.26609404	      5.07105215	     19.89166928	     75.48282429	     86.20490931
      1.68333330	    -10.68083766	      0.25821001	      9.82979433	      1.75102841	      0.91865571	     -0.05899515	      3.87338388	     -8.03312072	    -20.72073958	      8.35403635	    -13.83895935	      0.44423322	      0.00000000	     11.04505731	     -6.12352455	     -9.23498042	      9.77013023	    -17.49813218	     10.60498776	      0.00000000	      4.10623325	     -6.86670802	     15.23571296	    149.08111037	     -7.40407065	     51.14986443	      0.59991521	     74.25403333	    129.99131414	      4.90401195	     20.98704454	     74.35820935	     83.86656941
      1.70000000	    -11.34509729	      0.12909498	     10.34994058	      1.75381358	      0.92166970	     -0.05797731	      3.95036337	     -7.77788747	    -21.46490867	      7.03755639	    -16.30295969	      0.46257915	      0.00000000	     11.28970253	     -5.80077712	     -8.61053444	      8.25358284	    -19.60831009	      9.28948246	      0.00000000	      4.80554029	     -7.93010609	     14.84930378	    152.32536713	     -7.63941036	     50.08991376	      1.62719026	     71.51411232	    133.11948718	      5.16707192	     21.87812487	     72.56308815	     84.14053861
      1.71666670	    -11.90190568	     -0.05320042	     10.53736560	      1.75785362	      0.92450920	     -0.05677720	      4.23911893	     -7.51121731	    -21.92108524	      6.31977003	    -18.23746386	      0.92736728	      0.00000000	     11.34334742	     -5.66819857	     -8.60460284	      7.03499865	    -20.84166597	      8.82402498	      0.00000000	      5.12093043	     -8.35464050	     14.94449880	    155.68482937	     -7.14469534	     49.96050798	      3.51026265	     70.68062890	    135.45677926	      4.66508846	     22.07099738	     73.35704913	     84.34408121
